<?xml version="1.0" encoding="UTF-8" standalone="no"?>
<!DOCTYPE svg PUBLIC "-//W3C//DTD SVG 1.1//EN"
 "http://www.w3.org/Graphics/SVG/1.1/DTD/svg11.dtd">
<!-- Generated by graphviz version 2.36.0 (20140111.2315)
 -->
<!-- Title: controllers_diagram Pages: 1 -->
<svg width="586pt" height="652pt"
 viewBox="0.00 0.00 586.00 652.00" xmlns="http://www.w3.org/2000/svg" xmlns:xlink="http://www.w3.org/1999/xlink">
<g id="graph0" class="graph" transform="scale(1 1) rotate(0) translate(4 648)">
<title>controllers_diagram</title>
<polygon fill="none" stroke="none" points="-4,4 -4,-648 582,-648 582,4 -4,4"/>
<!-- _diagram_info -->
<g id="node1" class="node"><title>_diagram_info</title>
<text text-anchor="start" x="288" y="-63.6" font-family="Times,serif" font-size="13.00">Controllers diagram</text>
<text text-anchor="start" x="288" y="-49.6" font-family="Times,serif" font-size="13.00">Date: Jan 28 2016 &#45; 14:55</text>
<text text-anchor="start" x="288" y="-35.6" font-family="Times,serif" font-size="13.00">Migration version: 20160128054752</text>
<text text-anchor="start" x="288" y="-21.6" font-family="Times,serif" font-size="13.00">Generated by RailRoady 1.4.2</text>
<text text-anchor="start" x="288" y="-7.6" font-family="Times,serif" font-size="13.00">http://railroady.prestonlee.com</text>
</g>
<!-- ApplicationController -->
<g id="node2" class="node"><title>ApplicationController</title>
<path fill="none" stroke="black" d="M12,-520.5C12,-520.5 160,-520.5 160,-520.5 166,-520.5 172,-526.5 172,-532.5 172,-532.5 172,-631.5 172,-631.5 172,-637.5 166,-643.5 160,-643.5 160,-643.5 12,-643.5 12,-643.5 6,-643.5 0,-637.5 0,-631.5 0,-631.5 0,-532.5 0,-532.5 0,-526.5 6,-520.5 12,-520.5"/>
<text text-anchor="middle" x="86" y="-628.3" font-family="Times,serif" font-size="14.00">ApplicationController</text>
<polyline fill="none" stroke="black" points="0,-620.5 172,-620.5 "/>
<text text-anchor="start" x="8" y="-605.3" font-family="Times,serif" font-size="14.00">check_user_account</text>
<text text-anchor="start" x="8" y="-590.3" font-family="Times,serif" font-size="14.00">logged_in?</text>
<text text-anchor="start" x="8" y="-575.3" font-family="Times,serif" font-size="14.00">require_user</text>
<polyline fill="none" stroke="black" points="0,-567.5 172,-567.5 "/>
<polyline fill="none" stroke="black" points="0,-543.5 172,-543.5 "/>
<text text-anchor="start" x="8" y="-528.3" font-family="Times,serif" font-size="14.00">_layout</text>
</g>
<!-- BranchesController -->
<g id="node3" class="node"><title>BranchesController</title>
<path fill="none" stroke="black" d="M432,-380.5C432,-380.5 566,-380.5 566,-380.5 572,-380.5 578,-386.5 578,-392.5 578,-392.5 578,-581.5 578,-581.5 578,-587.5 572,-593.5 566,-593.5 566,-593.5 432,-593.5 432,-593.5 426,-593.5 420,-587.5 420,-581.5 420,-581.5 420,-392.5 420,-392.5 420,-386.5 426,-380.5 432,-380.5"/>
<text text-anchor="middle" x="499" y="-578.3" font-family="Times,serif" font-size="14.00">BranchesController</text>
<polyline fill="none" stroke="black" points="420,-570.5 578,-570.5 "/>
<text text-anchor="start" x="428" y="-555.3" font-family="Times,serif" font-size="14.00">create</text>
<text text-anchor="start" x="428" y="-540.3" font-family="Times,serif" font-size="14.00">destroy</text>
<text text-anchor="start" x="428" y="-525.3" font-family="Times,serif" font-size="14.00">edit</text>
<text text-anchor="start" x="428" y="-510.3" font-family="Times,serif" font-size="14.00">index</text>
<text text-anchor="start" x="428" y="-495.3" font-family="Times,serif" font-size="14.00">new</text>
<text text-anchor="start" x="428" y="-480.3" font-family="Times,serif" font-size="14.00">show</text>
<text text-anchor="start" x="428" y="-465.3" font-family="Times,serif" font-size="14.00">update</text>
<polyline fill="none" stroke="black" points="420,-457.5 578,-457.5 "/>
<polyline fill="none" stroke="black" points="420,-433.5 578,-433.5 "/>
<text text-anchor="start" x="428" y="-418.3" font-family="Times,serif" font-size="14.00">_layout</text>
<text text-anchor="start" x="428" y="-403.3" font-family="Times,serif" font-size="14.00">branch_params</text>
<text text-anchor="start" x="428" y="-388.3" font-family="Times,serif" font-size="14.00">set_branch</text>
</g>
<!-- WelcomesController -->
<g id="node4" class="node"><title>WelcomesController</title>
<path fill="none" stroke="black" d="M32,-380.5C32,-380.5 170,-380.5 170,-380.5 176,-380.5 182,-386.5 182,-392.5 182,-392.5 182,-476.5 182,-476.5 182,-482.5 176,-488.5 170,-488.5 170,-488.5 32,-488.5 32,-488.5 26,-488.5 20,-482.5 20,-476.5 20,-476.5 20,-392.5 20,-392.5 20,-386.5 26,-380.5 32,-380.5"/>
<text text-anchor="middle" x="101" y="-473.3" font-family="Times,serif" font-size="14.00">WelcomesController</text>
<polyline fill="none" stroke="black" points="20,-465.5 182,-465.5 "/>
<text text-anchor="start" x="28" y="-450.3" font-family="Times,serif" font-size="14.00">index</text>
<text text-anchor="start" x="28" y="-435.3" font-family="Times,serif" font-size="14.00">show</text>
<polyline fill="none" stroke="black" points="20,-427.5 182,-427.5 "/>
<polyline fill="none" stroke="black" points="20,-403.5 182,-403.5 "/>
<text text-anchor="start" x="28" y="-388.3" font-family="Times,serif" font-size="14.00">_layout</text>
</g>
<!-- AccountsController -->
<g id="node5" class="node"><title>AccountsController</title>
<path fill="none" stroke="black" d="M232,-380.5C232,-380.5 365,-380.5 365,-380.5 371,-380.5 377,-386.5 377,-392.5 377,-392.5 377,-581.5 377,-581.5 377,-587.5 371,-593.5 365,-593.5 365,-593.5 232,-593.5 232,-593.5 226,-593.5 220,-587.5 220,-581.5 220,-581.5 220,-392.5 220,-392.5 220,-386.5 226,-380.5 232,-380.5"/>
<text text-anchor="middle" x="298.5" y="-578.3" font-family="Times,serif" font-size="14.00">AccountsController</text>
<polyline fill="none" stroke="black" points="220,-570.5 377,-570.5 "/>
<text text-anchor="start" x="228" y="-555.3" font-family="Times,serif" font-size="14.00">create</text>
<text text-anchor="start" x="228" y="-540.3" font-family="Times,serif" font-size="14.00">destroy</text>
<text text-anchor="start" x="228" y="-525.3" font-family="Times,serif" font-size="14.00">edit</text>
<text text-anchor="start" x="228" y="-510.3" font-family="Times,serif" font-size="14.00">index</text>
<text text-anchor="start" x="228" y="-495.3" font-family="Times,serif" font-size="14.00">new</text>
<text text-anchor="start" x="228" y="-480.3" font-family="Times,serif" font-size="14.00">show</text>
<text text-anchor="start" x="228" y="-465.3" font-family="Times,serif" font-size="14.00">update</text>
<polyline fill="none" stroke="black" points="220,-457.5 377,-457.5 "/>
<polyline fill="none" stroke="black" points="220,-433.5 377,-433.5 "/>
<text text-anchor="start" x="228" y="-418.3" font-family="Times,serif" font-size="14.00">_layout</text>
<text text-anchor="start" x="228" y="-403.3" font-family="Times,serif" font-size="14.00">account_params</text>
<text text-anchor="start" x="228" y="-388.3" font-family="Times,serif" font-size="14.00">set_account</text>
</g>
<!-- TransactionsController -->
<g id="node6" class="node"><title>TransactionsController</title>
<path fill="none" stroke="black" d="M192,-120.5C192,-120.5 350,-120.5 350,-120.5 356,-120.5 362,-126.5 362,-132.5 362,-132.5 362,-336.5 362,-336.5 362,-342.5 356,-348.5 350,-348.5 350,-348.5 192,-348.5 192,-348.5 186,-348.5 180,-342.5 180,-336.5 180,-336.5 180,-132.5 180,-132.5 180,-126.5 186,-120.5 192,-120.5"/>
<text text-anchor="middle" x="271" y="-333.3" font-family="Times,serif" font-size="14.00">TransactionsController</text>
<polyline fill="none" stroke="black" points="180,-325.5 362,-325.5 "/>
<text text-anchor="start" x="188" y="-310.3" font-family="Times,serif" font-size="14.00">create</text>
<text text-anchor="start" x="188" y="-295.3" font-family="Times,serif" font-size="14.00">destroy</text>
<text text-anchor="start" x="188" y="-280.3" font-family="Times,serif" font-size="14.00">edit</text>
<text text-anchor="start" x="188" y="-265.3" font-family="Times,serif" font-size="14.00">index</text>
<text text-anchor="start" x="188" y="-250.3" font-family="Times,serif" font-size="14.00">new</text>
<text text-anchor="start" x="188" y="-235.3" font-family="Times,serif" font-size="14.00">show</text>
<text text-anchor="start" x="188" y="-220.3" font-family="Times,serif" font-size="14.00">update</text>
<polyline fill="none" stroke="black" points="180,-212.5 362,-212.5 "/>
<polyline fill="none" stroke="black" points="180,-188.5 362,-188.5 "/>
<text text-anchor="start" x="188" y="-173.3" font-family="Times,serif" font-size="14.00">_layout</text>
<text text-anchor="start" x="188" y="-158.3" font-family="Times,serif" font-size="14.00">require_same_user</text>
<text text-anchor="start" x="188" y="-143.3" font-family="Times,serif" font-size="14.00">set_transaction</text>
<text text-anchor="start" x="188" y="-128.3" font-family="Times,serif" font-size="14.00">transaction_params</text>
</g>
<!-- EmployeesController -->
<g id="node7" class="node"><title>EmployeesController</title>
<path fill="none" stroke="black" d="M412,-120.5C412,-120.5 556,-120.5 556,-120.5 562,-120.5 568,-126.5 568,-132.5 568,-132.5 568,-321.5 568,-321.5 568,-327.5 562,-333.5 556,-333.5 556,-333.5 412,-333.5 412,-333.5 406,-333.5 400,-327.5 400,-321.5 400,-321.5 400,-132.5 400,-132.5 400,-126.5 406,-120.5 412,-120.5"/>
<text text-anchor="middle" x="484" y="-318.3" font-family="Times,serif" font-size="14.00">EmployeesController</text>
<polyline fill="none" stroke="black" points="400,-310.5 568,-310.5 "/>
<text text-anchor="start" x="408" y="-295.3" font-family="Times,serif" font-size="14.00">create</text>
<text text-anchor="start" x="408" y="-280.3" font-family="Times,serif" font-size="14.00">destroy</text>
<text text-anchor="start" x="408" y="-265.3" font-family="Times,serif" font-size="14.00">edit</text>
<text text-anchor="start" x="408" y="-250.3" font-family="Times,serif" font-size="14.00">index</text>
<text text-anchor="start" x="408" y="-235.3" font-family="Times,serif" font-size="14.00">new</text>
<text text-anchor="start" x="408" y="-220.3" font-family="Times,serif" font-size="14.00">show</text>
<text text-anchor="start" x="408" y="-205.3" font-family="Times,serif" font-size="14.00">update</text>
<polyline fill="none" stroke="black" points="400,-197.5 568,-197.5 "/>
<polyline fill="none" stroke="black" points="400,-173.5 568,-173.5 "/>
<text text-anchor="start" x="408" y="-158.3" font-family="Times,serif" font-size="14.00">_layout</text>
<text text-anchor="start" x="408" y="-143.3" font-family="Times,serif" font-size="14.00">employee_params</text>
<text text-anchor="start" x="408" y="-128.3" font-family="Times,serif" font-size="14.00">set_employee</text>
</g>
</g>
</svg>
