<?xml version="1.0" encoding="UTF-8" standalone="no"?>
<!DOCTYPE svg PUBLIC "-//W3C//DTD SVG 1.1//EN"
 "http://www.w3.org/Graphics/SVG/1.1/DTD/svg11.dtd">
<!-- Generated by graphviz version 2.36.0 (20140111.2315)
 -->
<!-- Title: controllers_diagram Pages: 1 -->
<svg width="1760pt" height="1424pt"
 viewBox="0.00 0.00 1760.00 1423.99" xmlns="http://www.w3.org/2000/svg" xmlns:xlink="http://www.w3.org/1999/xlink">
<g id="graph0" class="graph" transform="scale(1 1) rotate(0) translate(4 1419.99)">
<title>controllers_diagram</title>
<polygon fill="none" stroke="none" points="-4,4 -4,-1419.99 1756,-1419.99 1756,4 -4,4"/>
<!-- _diagram_info -->
<g id="node1" class="node"><title>_diagram_info</title>
<text text-anchor="start" x="1503" y="-523.6" font-family="Times,serif" font-size="13.00">Controllers diagram</text>
<text text-anchor="start" x="1503" y="-509.6" font-family="Times,serif" font-size="13.00">Date: Jan 24 2016 &#45; 20:08</text>
<text text-anchor="start" x="1503" y="-495.6" font-family="Times,serif" font-size="13.00">Migration version: 20160124195322</text>
<text text-anchor="start" x="1503" y="-481.6" font-family="Times,serif" font-size="13.00">Generated by RailRoady 1.4.2</text>
<text text-anchor="start" x="1503" y="-467.6" font-family="Times,serif" font-size="13.00">http://railroady.prestonlee.com</text>
</g>
<!-- ApplicationController -->
<g id="node2" class="node"><title>ApplicationController</title>
<path fill="none" stroke="black" d="M795.533,-852.008C795.533,-852.008 943.533,-852.008 943.533,-852.008 949.533,-852.008 955.533,-858.008 955.533,-864.008 955.533,-864.008 955.533,-963.008 955.533,-963.008 955.533,-969.008 949.533,-975.008 943.533,-975.008 943.533,-975.008 795.533,-975.008 795.533,-975.008 789.533,-975.008 783.533,-969.008 783.533,-963.008 783.533,-963.008 783.533,-864.008 783.533,-864.008 783.533,-858.008 789.533,-852.008 795.533,-852.008"/>
<text text-anchor="middle" x="869.533" y="-959.808" font-family="Times,serif" font-size="14.00">ApplicationController</text>
<polyline fill="none" stroke="black" points="783.533,-952.008 955.533,-952.008 "/>
<text text-anchor="start" x="791.533" y="-936.808" font-family="Times,serif" font-size="14.00">check_user_account</text>
<text text-anchor="start" x="791.533" y="-921.808" font-family="Times,serif" font-size="14.00">logged_in?</text>
<text text-anchor="start" x="791.533" y="-906.808" font-family="Times,serif" font-size="14.00">require_user</text>
<polyline fill="none" stroke="black" points="783.533,-899.008 955.533,-899.008 "/>
<polyline fill="none" stroke="black" points="783.533,-875.008 955.533,-875.008 "/>
<text text-anchor="start" x="791.533" y="-859.808" font-family="Times,serif" font-size="14.00">_layout</text>
</g>
<!-- WelcomesController -->
<g id="node3" class="node"><title>WelcomesController</title>
<path fill="none" stroke="black" d="M1283.05,-845.448C1283.05,-845.448 1421.05,-845.448 1421.05,-845.448 1427.05,-845.448 1433.05,-851.448 1433.05,-857.448 1433.05,-857.448 1433.05,-941.448 1433.05,-941.448 1433.05,-947.448 1427.05,-953.448 1421.05,-953.448 1421.05,-953.448 1283.05,-953.448 1283.05,-953.448 1277.05,-953.448 1271.05,-947.448 1271.05,-941.448 1271.05,-941.448 1271.05,-857.448 1271.05,-857.448 1271.05,-851.448 1277.05,-845.448 1283.05,-845.448"/>
<text text-anchor="middle" x="1352.05" y="-938.248" font-family="Times,serif" font-size="14.00">WelcomesController</text>
<polyline fill="none" stroke="black" points="1271.05,-930.448 1433.05,-930.448 "/>
<text text-anchor="start" x="1279.05" y="-915.248" font-family="Times,serif" font-size="14.00">index</text>
<text text-anchor="start" x="1279.05" y="-900.248" font-family="Times,serif" font-size="14.00">show</text>
<polyline fill="none" stroke="black" points="1271.05,-892.448 1433.05,-892.448 "/>
<polyline fill="none" stroke="black" points="1271.05,-868.448 1433.05,-868.448 "/>
<text text-anchor="start" x="1279.05" y="-853.248" font-family="Times,serif" font-size="14.00">_layout</text>
</g>
<!-- ApplicationController&#45;&gt;WelcomesController -->
<g id="edge1" class="edge"><title>ApplicationController&#45;&gt;WelcomesController</title>
<path fill="none" stroke="black" d="M955.798,-910.995C1045.12,-908.392 1183.59,-904.357 1270.95,-901.812"/>
</g>
<!-- AccountsController -->
<g id="node4" class="node"><title>AccountsController</title>
<path fill="none" stroke="black" d="M241.696,-810.925C241.696,-810.925 374.696,-810.925 374.696,-810.925 380.696,-810.925 386.696,-816.925 386.696,-822.925 386.696,-822.925 386.696,-1011.92 386.696,-1011.92 386.696,-1017.92 380.696,-1023.92 374.696,-1023.92 374.696,-1023.92 241.696,-1023.92 241.696,-1023.92 235.696,-1023.92 229.696,-1017.92 229.696,-1011.92 229.696,-1011.92 229.696,-822.925 229.696,-822.925 229.696,-816.925 235.696,-810.925 241.696,-810.925"/>
<text text-anchor="middle" x="308.196" y="-1008.72" font-family="Times,serif" font-size="14.00">AccountsController</text>
<polyline fill="none" stroke="black" points="229.696,-1000.92 386.696,-1000.92 "/>
<text text-anchor="start" x="237.696" y="-985.725" font-family="Times,serif" font-size="14.00">create</text>
<text text-anchor="start" x="237.696" y="-970.725" font-family="Times,serif" font-size="14.00">destroy</text>
<text text-anchor="start" x="237.696" y="-955.725" font-family="Times,serif" font-size="14.00">edit</text>
<text text-anchor="start" x="237.696" y="-940.725" font-family="Times,serif" font-size="14.00">index</text>
<text text-anchor="start" x="237.696" y="-925.725" font-family="Times,serif" font-size="14.00">new</text>
<text text-anchor="start" x="237.696" y="-910.725" font-family="Times,serif" font-size="14.00">show</text>
<text text-anchor="start" x="237.696" y="-895.725" font-family="Times,serif" font-size="14.00">update</text>
<polyline fill="none" stroke="black" points="229.696,-887.925 386.696,-887.925 "/>
<polyline fill="none" stroke="black" points="229.696,-863.925 386.696,-863.925 "/>
<text text-anchor="start" x="237.696" y="-848.725" font-family="Times,serif" font-size="14.00">_layout</text>
<text text-anchor="start" x="237.696" y="-833.725" font-family="Times,serif" font-size="14.00">account_params</text>
<text text-anchor="start" x="237.696" y="-818.725" font-family="Times,serif" font-size="14.00">set_account</text>
</g>
<!-- ApplicationController&#45;&gt;AccountsController -->
<g id="edge2" class="edge"><title>ApplicationController&#45;&gt;AccountsController</title>
<path fill="none" stroke="black" d="M783.36,-914.11C675.18,-914.864 491.158,-916.148 386.709,-916.877"/>
</g>
<!-- TransactionsController -->
<g id="node5" class="node"><title>TransactionsController</title>
<path fill="none" stroke="black" d="M118.123,-1177.99C118.123,-1177.99 276.123,-1177.99 276.123,-1177.99 282.123,-1177.99 288.123,-1183.99 288.123,-1189.99 288.123,-1189.99 288.123,-1393.99 288.123,-1393.99 288.123,-1399.99 282.123,-1405.99 276.123,-1405.99 276.123,-1405.99 118.123,-1405.99 118.123,-1405.99 112.123,-1405.99 106.123,-1399.99 106.123,-1393.99 106.123,-1393.99 106.123,-1189.99 106.123,-1189.99 106.123,-1183.99 112.123,-1177.99 118.123,-1177.99"/>
<text text-anchor="middle" x="197.123" y="-1390.79" font-family="Times,serif" font-size="14.00">TransactionsController</text>
<polyline fill="none" stroke="black" points="106.123,-1382.99 288.123,-1382.99 "/>
<text text-anchor="start" x="114.123" y="-1367.79" font-family="Times,serif" font-size="14.00">create</text>
<text text-anchor="start" x="114.123" y="-1352.79" font-family="Times,serif" font-size="14.00">destroy</text>
<text text-anchor="start" x="114.123" y="-1337.79" font-family="Times,serif" font-size="14.00">edit</text>
<text text-anchor="start" x="114.123" y="-1322.79" font-family="Times,serif" font-size="14.00">index</text>
<text text-anchor="start" x="114.123" y="-1307.79" font-family="Times,serif" font-size="14.00">new</text>
<text text-anchor="start" x="114.123" y="-1292.79" font-family="Times,serif" font-size="14.00">show</text>
<text text-anchor="start" x="114.123" y="-1277.79" font-family="Times,serif" font-size="14.00">update</text>
<polyline fill="none" stroke="black" points="106.123,-1269.99 288.123,-1269.99 "/>
<polyline fill="none" stroke="black" points="106.123,-1245.99 288.123,-1245.99 "/>
<text text-anchor="start" x="114.123" y="-1230.79" font-family="Times,serif" font-size="14.00">_layout</text>
<text text-anchor="start" x="114.123" y="-1215.79" font-family="Times,serif" font-size="14.00">require_same_user</text>
<text text-anchor="start" x="114.123" y="-1200.79" font-family="Times,serif" font-size="14.00">set_transaction</text>
<text text-anchor="start" x="114.123" y="-1185.79" font-family="Times,serif" font-size="14.00">transaction_params</text>
</g>
<!-- ApplicationController&#45;&gt;TransactionsController -->
<g id="edge3" class="edge"><title>ApplicationController&#45;&gt;TransactionsController</title>
<path fill="none" stroke="black" d="M783.346,-962.02C655.948,-1033.73 418.439,-1167.41 288.257,-1240.69"/>
</g>
<!-- EmployeesController -->
<g id="node6" class="node"><title>EmployeesController</title>
<path fill="none" stroke="black" d="M1190.34,-1202.49C1190.34,-1202.49 1334.34,-1202.49 1334.34,-1202.49 1340.34,-1202.49 1346.34,-1208.49 1346.34,-1214.49 1346.34,-1214.49 1346.34,-1403.49 1346.34,-1403.49 1346.34,-1409.49 1340.34,-1415.49 1334.34,-1415.49 1334.34,-1415.49 1190.34,-1415.49 1190.34,-1415.49 1184.34,-1415.49 1178.34,-1409.49 1178.34,-1403.49 1178.34,-1403.49 1178.34,-1214.49 1178.34,-1214.49 1178.34,-1208.49 1184.34,-1202.49 1190.34,-1202.49"/>
<text text-anchor="middle" x="1262.34" y="-1400.29" font-family="Times,serif" font-size="14.00">EmployeesController</text>
<polyline fill="none" stroke="black" points="1178.34,-1392.49 1346.34,-1392.49 "/>
<text text-anchor="start" x="1186.34" y="-1377.29" font-family="Times,serif" font-size="14.00">create</text>
<text text-anchor="start" x="1186.34" y="-1362.29" font-family="Times,serif" font-size="14.00">destroy</text>
<text text-anchor="start" x="1186.34" y="-1347.29" font-family="Times,serif" font-size="14.00">edit</text>
<text text-anchor="start" x="1186.34" y="-1332.29" font-family="Times,serif" font-size="14.00">index</text>
<text text-anchor="start" x="1186.34" y="-1317.29" font-family="Times,serif" font-size="14.00">new</text>
<text text-anchor="start" x="1186.34" y="-1302.29" font-family="Times,serif" font-size="14.00">show</text>
<text text-anchor="start" x="1186.34" y="-1287.29" font-family="Times,serif" font-size="14.00">update</text>
<polyline fill="none" stroke="black" points="1178.34,-1279.49 1346.34,-1279.49 "/>
<polyline fill="none" stroke="black" points="1178.34,-1255.49 1346.34,-1255.49 "/>
<text text-anchor="start" x="1186.34" y="-1240.29" font-family="Times,serif" font-size="14.00">_layout</text>
<text text-anchor="start" x="1186.34" y="-1225.29" font-family="Times,serif" font-size="14.00">employee_params</text>
<text text-anchor="start" x="1186.34" y="-1210.29" font-family="Times,serif" font-size="14.00">set_employee</text>
</g>
<!-- ApplicationController&#45;&gt;EmployeesController -->
<g id="edge4" class="edge"><title>ApplicationController&#45;&gt;EmployeesController</title>
<path fill="none" stroke="black" d="M930.908,-975.302C997.366,-1042.21 1103.8,-1149.38 1178.07,-1224.15"/>
</g>
<!-- HomeController -->
<g id="node7" class="node"><title>HomeController</title>
<path fill="none" stroke="black" d="M660.736,-1253.08C660.736,-1253.08 769.736,-1253.08 769.736,-1253.08 775.736,-1253.08 781.736,-1259.08 781.736,-1265.08 781.736,-1265.08 781.736,-1334.08 781.736,-1334.08 781.736,-1340.08 775.736,-1346.08 769.736,-1346.08 769.736,-1346.08 660.736,-1346.08 660.736,-1346.08 654.736,-1346.08 648.736,-1340.08 648.736,-1334.08 648.736,-1334.08 648.736,-1265.08 648.736,-1265.08 648.736,-1259.08 654.736,-1253.08 660.736,-1253.08"/>
<text text-anchor="middle" x="715.236" y="-1330.88" font-family="Times,serif" font-size="14.00">HomeController</text>
<polyline fill="none" stroke="black" points="648.736,-1323.08 781.736,-1323.08 "/>
<text text-anchor="start" x="656.736" y="-1307.88" font-family="Times,serif" font-size="14.00">index</text>
<polyline fill="none" stroke="black" points="648.736,-1300.08 781.736,-1300.08 "/>
<polyline fill="none" stroke="black" points="648.736,-1276.08 781.736,-1276.08 "/>
<text text-anchor="start" x="656.736" y="-1260.88" font-family="Times,serif" font-size="14.00">_layout</text>
</g>
<!-- ApplicationController&#45;&gt;HomeController -->
<g id="edge5" class="edge"><title>ApplicationController&#45;&gt;HomeController</title>
<path fill="none" stroke="black" d="M844.913,-975.109C813.986,-1052.49 761.61,-1183.54 733.829,-1253.05"/>
</g>
<!-- DeviseController -->
<g id="node14" class="node"><title>DeviseController</title>
<path fill="none" stroke="black" d="M578.144,-395.141C578.144,-395.141 796.144,-395.141 796.144,-395.141 802.144,-395.141 808.144,-401.141 808.144,-407.141 808.144,-407.141 808.144,-760.141 808.144,-760.141 808.144,-766.141 802.144,-772.141 796.144,-772.141 796.144,-772.141 578.144,-772.141 578.144,-772.141 572.144,-772.141 566.144,-766.141 566.144,-760.141 566.144,-760.141 566.144,-407.141 566.144,-407.141 566.144,-401.141 572.144,-395.141 578.144,-395.141"/>
<text text-anchor="middle" x="687.144" y="-756.941" font-family="Times,serif" font-size="14.00">DeviseController</text>
<polyline fill="none" stroke="black" points="566.144,-749.141 808.144,-749.141 "/>
<text text-anchor="start" x="574.144" y="-733.941" font-family="Times,serif" font-size="14.00">_prefixes</text>
<polyline fill="none" stroke="black" points="566.144,-726.141 808.144,-726.141 "/>
<text text-anchor="start" x="574.144" y="-710.941" font-family="Times,serif" font-size="14.00">assert_is_devise_resource!</text>
<text text-anchor="start" x="574.144" y="-695.941" font-family="Times,serif" font-size="14.00">clean_up_passwords</text>
<text text-anchor="start" x="574.144" y="-680.941" font-family="Times,serif" font-size="14.00">devise_i18n_options</text>
<text text-anchor="start" x="574.144" y="-665.941" font-family="Times,serif" font-size="14.00">devise_mapping</text>
<text text-anchor="start" x="574.144" y="-650.941" font-family="Times,serif" font-size="14.00">find_message</text>
<text text-anchor="start" x="574.144" y="-635.941" font-family="Times,serif" font-size="14.00">navigational_formats</text>
<text text-anchor="start" x="574.144" y="-620.941" font-family="Times,serif" font-size="14.00">require_no_authentication</text>
<text text-anchor="start" x="574.144" y="-605.941" font-family="Times,serif" font-size="14.00">resource</text>
<text text-anchor="start" x="574.144" y="-590.941" font-family="Times,serif" font-size="14.00">resource=</text>
<text text-anchor="start" x="574.144" y="-575.941" font-family="Times,serif" font-size="14.00">resource_class</text>
<text text-anchor="start" x="574.144" y="-560.941" font-family="Times,serif" font-size="14.00">resource_name</text>
<text text-anchor="start" x="574.144" y="-545.941" font-family="Times,serif" font-size="14.00">resource_params</text>
<text text-anchor="start" x="574.144" y="-530.941" font-family="Times,serif" font-size="14.00">respond_with_navigational</text>
<text text-anchor="start" x="574.144" y="-515.941" font-family="Times,serif" font-size="14.00">scope_name</text>
<text text-anchor="start" x="574.144" y="-500.941" font-family="Times,serif" font-size="14.00">set_flash_message</text>
<text text-anchor="start" x="574.144" y="-485.941" font-family="Times,serif" font-size="14.00">set_minimum_password_length</text>
<text text-anchor="start" x="574.144" y="-470.941" font-family="Times,serif" font-size="14.00">signed_in_resource</text>
<text text-anchor="start" x="574.144" y="-455.941" font-family="Times,serif" font-size="14.00">successfully_sent?</text>
<text text-anchor="start" x="574.144" y="-440.941" font-family="Times,serif" font-size="14.00">translation_scope</text>
<text text-anchor="start" x="574.144" y="-425.941" font-family="Times,serif" font-size="14.00">unknown_action!</text>
<polyline fill="none" stroke="black" points="566.144,-418.141 808.144,-418.141 "/>
<text text-anchor="start" x="574.144" y="-402.941" font-family="Times,serif" font-size="14.00">_layout</text>
</g>
<!-- ApplicationController&#45;&gt;DeviseController -->
<g id="edge12" class="edge"><title>ApplicationController&#45;&gt;DeviseController</title>
<path fill="none" stroke="black" d="M835.441,-851.85C822.656,-828.727 807.365,-801.072 791.532,-772.437"/>
</g>
<!-- Devise::RegistrationsController -->
<g id="node8" class="node"><title>Devise::RegistrationsController</title>
<path fill="none" stroke="black" d="M455.606,-0.5C455.606,-0.5 677.606,-0.5 677.606,-0.5 683.606,-0.5 689.606,-6.5 689.606,-12.5 689.606,-12.5 689.606,-305.5 689.606,-305.5 689.606,-311.5 683.606,-317.5 677.606,-317.5 677.606,-317.5 455.606,-317.5 455.606,-317.5 449.606,-317.5 443.606,-311.5 443.606,-305.5 443.606,-305.5 443.606,-12.5 443.606,-12.5 443.606,-6.5 449.606,-0.5 455.606,-0.5"/>
<text text-anchor="middle" x="566.606" y="-302.3" font-family="Times,serif" font-size="14.00">Devise::RegistrationsController</text>
<polyline fill="none" stroke="black" points="443.606,-294.5 689.606,-294.5 "/>
<text text-anchor="start" x="451.606" y="-279.3" font-family="Times,serif" font-size="14.00">cancel</text>
<text text-anchor="start" x="451.606" y="-264.3" font-family="Times,serif" font-size="14.00">create</text>
<text text-anchor="start" x="451.606" y="-249.3" font-family="Times,serif" font-size="14.00">destroy</text>
<text text-anchor="start" x="451.606" y="-234.3" font-family="Times,serif" font-size="14.00">edit</text>
<text text-anchor="start" x="451.606" y="-219.3" font-family="Times,serif" font-size="14.00">new</text>
<text text-anchor="start" x="451.606" y="-204.3" font-family="Times,serif" font-size="14.00">update</text>
<polyline fill="none" stroke="black" points="443.606,-196.5 689.606,-196.5 "/>
<text text-anchor="start" x="451.606" y="-181.3" font-family="Times,serif" font-size="14.00">account_update_params</text>
<text text-anchor="start" x="451.606" y="-166.3" font-family="Times,serif" font-size="14.00">after_inactive_sign_up_path_for</text>
<text text-anchor="start" x="451.606" y="-151.3" font-family="Times,serif" font-size="14.00">after_sign_up_path_for</text>
<text text-anchor="start" x="451.606" y="-136.3" font-family="Times,serif" font-size="14.00">after_update_path_for</text>
<text text-anchor="start" x="451.606" y="-121.3" font-family="Times,serif" font-size="14.00">authenticate_scope!</text>
<text text-anchor="start" x="451.606" y="-106.3" font-family="Times,serif" font-size="14.00">build_resource</text>
<text text-anchor="start" x="451.606" y="-91.3" font-family="Times,serif" font-size="14.00">sign_up</text>
<text text-anchor="start" x="451.606" y="-76.3" font-family="Times,serif" font-size="14.00">sign_up_params</text>
<text text-anchor="start" x="451.606" y="-61.3" font-family="Times,serif" font-size="14.00">translation_scope</text>
<text text-anchor="start" x="451.606" y="-46.3" font-family="Times,serif" font-size="14.00">update_needs_confirmation?</text>
<text text-anchor="start" x="451.606" y="-31.3" font-family="Times,serif" font-size="14.00">update_resource</text>
<polyline fill="none" stroke="black" points="443.606,-23.5 689.606,-23.5 "/>
<text text-anchor="start" x="451.606" y="-8.3" font-family="Times,serif" font-size="14.00">_layout</text>
</g>
<!-- Devise::SessionsController -->
<g id="node9" class="node"><title>Devise::SessionsController</title>
<path fill="none" stroke="black" d="M1138.81,-452.405C1138.81,-452.405 1323.81,-452.405 1323.81,-452.405 1329.81,-452.405 1335.81,-458.405 1335.81,-464.405 1335.81,-464.405 1335.81,-652.405 1335.81,-652.405 1335.81,-658.405 1329.81,-664.405 1323.81,-664.405 1323.81,-664.405 1138.81,-664.405 1138.81,-664.405 1132.81,-664.405 1126.81,-658.405 1126.81,-652.405 1126.81,-652.405 1126.81,-464.405 1126.81,-464.405 1126.81,-458.405 1132.81,-452.405 1138.81,-452.405"/>
<text text-anchor="middle" x="1231.31" y="-649.205" font-family="Times,serif" font-size="14.00">Devise::SessionsController</text>
<polyline fill="none" stroke="black" points="1126.81,-641.405 1335.81,-641.405 "/>
<text text-anchor="start" x="1134.81" y="-626.205" font-family="Times,serif" font-size="14.00">create</text>
<text text-anchor="start" x="1134.81" y="-611.205" font-family="Times,serif" font-size="14.00">destroy</text>
<text text-anchor="start" x="1134.81" y="-596.205" font-family="Times,serif" font-size="14.00">new</text>
<polyline fill="none" stroke="black" points="1126.81,-588.405 1335.81,-588.405 "/>
<text text-anchor="start" x="1134.81" y="-573.205" font-family="Times,serif" font-size="14.00">auth_options</text>
<text text-anchor="start" x="1134.81" y="-558.205" font-family="Times,serif" font-size="14.00">serialize_options</text>
<text text-anchor="start" x="1134.81" y="-543.205" font-family="Times,serif" font-size="14.00">sign_in_params</text>
<text text-anchor="start" x="1134.81" y="-528.205" font-family="Times,serif" font-size="14.00">translation_scope</text>
<polyline fill="none" stroke="black" points="1126.81,-520.405 1335.81,-520.405 "/>
<text text-anchor="start" x="1134.81" y="-505.205" font-family="Times,serif" font-size="14.00">_layout</text>
<text text-anchor="start" x="1134.81" y="-490.205" font-family="Times,serif" font-size="14.00">all_signed_out?</text>
<text text-anchor="start" x="1134.81" y="-475.205" font-family="Times,serif" font-size="14.00">respond_to_on_destroy</text>
<text text-anchor="start" x="1134.81" y="-460.205" font-family="Times,serif" font-size="14.00">verify_signed_out_user</text>
</g>
<!-- Devise::UnlocksController -->
<g id="node10" class="node"><title>Devise::UnlocksController</title>
<path fill="none" stroke="black" d="M12,-73.1076C12,-73.1076 320,-73.1076 320,-73.1076 326,-73.1076 332,-79.1076 332,-85.1076 332,-85.1076 332,-213.108 332,-213.108 332,-219.108 326,-225.108 320,-225.108 320,-225.108 12,-225.108 12,-225.108 6,-225.108 0,-219.108 0,-213.108 0,-213.108 0,-85.1076 0,-85.1076 0,-79.1076 6,-73.1076 12,-73.1076"/>
<text text-anchor="middle" x="166" y="-209.908" font-family="Times,serif" font-size="14.00">Devise::UnlocksController</text>
<polyline fill="none" stroke="black" points="0,-202.108 332,-202.108 "/>
<text text-anchor="start" x="8" y="-186.908" font-family="Times,serif" font-size="14.00">create</text>
<text text-anchor="start" x="8" y="-171.908" font-family="Times,serif" font-size="14.00">new</text>
<text text-anchor="start" x="8" y="-156.908" font-family="Times,serif" font-size="14.00">show</text>
<polyline fill="none" stroke="black" points="0,-149.108 332,-149.108 "/>
<text text-anchor="start" x="8" y="-133.908" font-family="Times,serif" font-size="14.00">after_sending_unlock_instructions_path_for</text>
<text text-anchor="start" x="8" y="-118.908" font-family="Times,serif" font-size="14.00">after_unlock_path_for</text>
<text text-anchor="start" x="8" y="-103.908" font-family="Times,serif" font-size="14.00">translation_scope</text>
<polyline fill="none" stroke="black" points="0,-96.1076 332,-96.1076 "/>
<text text-anchor="start" x="8" y="-80.9076" font-family="Times,serif" font-size="14.00">_layout</text>
</g>
<!-- Devise::ConfirmationsController -->
<g id="node11" class="node"><title>Devise::ConfirmationsController</title>
<path fill="none" stroke="black" d="M1170.85,-83.7754C1170.85,-83.7754 1535.85,-83.7754 1535.85,-83.7754 1541.85,-83.7754 1547.85,-89.7754 1547.85,-95.7754 1547.85,-95.7754 1547.85,-223.775 1547.85,-223.775 1547.85,-229.775 1541.85,-235.775 1535.85,-235.775 1535.85,-235.775 1170.85,-235.775 1170.85,-235.775 1164.85,-235.775 1158.85,-229.775 1158.85,-223.775 1158.85,-223.775 1158.85,-95.7754 1158.85,-95.7754 1158.85,-89.7754 1164.85,-83.7754 1170.85,-83.7754"/>
<text text-anchor="middle" x="1353.35" y="-220.575" font-family="Times,serif" font-size="14.00">Devise::ConfirmationsController</text>
<polyline fill="none" stroke="black" points="1158.85,-212.775 1547.85,-212.775 "/>
<text text-anchor="start" x="1166.85" y="-197.575" font-family="Times,serif" font-size="14.00">create</text>
<text text-anchor="start" x="1166.85" y="-182.575" font-family="Times,serif" font-size="14.00">new</text>
<text text-anchor="start" x="1166.85" y="-167.575" font-family="Times,serif" font-size="14.00">show</text>
<polyline fill="none" stroke="black" points="1158.85,-159.775 1547.85,-159.775 "/>
<text text-anchor="start" x="1166.85" y="-144.575" font-family="Times,serif" font-size="14.00">after_confirmation_path_for</text>
<text text-anchor="start" x="1166.85" y="-129.575" font-family="Times,serif" font-size="14.00">after_resending_confirmation_instructions_path_for</text>
<text text-anchor="start" x="1166.85" y="-114.575" font-family="Times,serif" font-size="14.00">translation_scope</text>
<polyline fill="none" stroke="black" points="1158.85,-106.775 1547.85,-106.775 "/>
<text text-anchor="start" x="1166.85" y="-91.5754" font-family="Times,serif" font-size="14.00">_layout</text>
</g>
<!-- Devise::PasswordsController -->
<g id="node12" class="node"><title>Devise::PasswordsController</title>
<path fill="none" stroke="black" d="M750.486,-69.299C750.486,-69.299 1122.49,-69.299 1122.49,-69.299 1128.49,-69.299 1134.49,-75.299 1134.49,-81.299 1134.49,-81.299 1134.49,-254.299 1134.49,-254.299 1134.49,-260.299 1128.49,-266.299 1122.49,-266.299 1122.49,-266.299 750.486,-266.299 750.486,-266.299 744.486,-266.299 738.486,-260.299 738.486,-254.299 738.486,-254.299 738.486,-81.299 738.486,-81.299 738.486,-75.299 744.486,-69.299 750.486,-69.299"/>
<text text-anchor="middle" x="936.486" y="-251.099" font-family="Times,serif" font-size="14.00">Devise::PasswordsController</text>
<polyline fill="none" stroke="black" points="738.486,-243.299 1134.49,-243.299 "/>
<text text-anchor="start" x="746.486" y="-228.099" font-family="Times,serif" font-size="14.00">create</text>
<text text-anchor="start" x="746.486" y="-213.099" font-family="Times,serif" font-size="14.00">edit</text>
<text text-anchor="start" x="746.486" y="-198.099" font-family="Times,serif" font-size="14.00">new</text>
<text text-anchor="start" x="746.486" y="-183.099" font-family="Times,serif" font-size="14.00">update</text>
<polyline fill="none" stroke="black" points="738.486,-175.299 1134.49,-175.299 "/>
<text text-anchor="start" x="746.486" y="-160.099" font-family="Times,serif" font-size="14.00">after_resetting_password_path_for</text>
<text text-anchor="start" x="746.486" y="-145.099" font-family="Times,serif" font-size="14.00">after_sending_reset_password_instructions_path_for</text>
<text text-anchor="start" x="746.486" y="-130.099" font-family="Times,serif" font-size="14.00">assert_reset_token_passed</text>
<text text-anchor="start" x="746.486" y="-115.099" font-family="Times,serif" font-size="14.00">translation_scope</text>
<text text-anchor="start" x="746.486" y="-100.099" font-family="Times,serif" font-size="14.00">unlockable?</text>
<polyline fill="none" stroke="black" points="738.486,-92.299 1134.49,-92.299 "/>
<text text-anchor="start" x="746.486" y="-77.099" font-family="Times,serif" font-size="14.00">_layout</text>
</g>
<!-- Devise::OmniauthCallbacksController -->
<g id="node13" class="node"><title>Devise::OmniauthCallbacksController</title>
<path fill="none" stroke="black" d="M50.2366,-507.161C50.2366,-507.161 314.237,-507.161 314.237,-507.161 320.237,-507.161 326.237,-513.161 326.237,-519.161 326.237,-519.161 326.237,-647.161 326.237,-647.161 326.237,-653.161 320.237,-659.161 314.237,-659.161 314.237,-659.161 50.2366,-659.161 50.2366,-659.161 44.2366,-659.161 38.2366,-653.161 38.2366,-647.161 38.2366,-647.161 38.2366,-519.161 38.2366,-519.161 38.2366,-513.161 44.2366,-507.161 50.2366,-507.161"/>
<text text-anchor="middle" x="182.237" y="-643.961" font-family="Times,serif" font-size="14.00">Devise::OmniauthCallbacksController</text>
<polyline fill="none" stroke="black" points="38.2366,-636.161 326.237,-636.161 "/>
<text text-anchor="start" x="46.2366" y="-620.961" font-family="Times,serif" font-size="14.00">failure</text>
<text text-anchor="start" x="46.2366" y="-605.961" font-family="Times,serif" font-size="14.00">passthru</text>
<polyline fill="none" stroke="black" points="38.2366,-598.161 326.237,-598.161 "/>
<text text-anchor="start" x="46.2366" y="-582.961" font-family="Times,serif" font-size="14.00">after_omniauth_failure_path_for</text>
<text text-anchor="start" x="46.2366" y="-567.961" font-family="Times,serif" font-size="14.00">failed_strategy</text>
<text text-anchor="start" x="46.2366" y="-552.961" font-family="Times,serif" font-size="14.00">failure_message</text>
<text text-anchor="start" x="46.2366" y="-537.961" font-family="Times,serif" font-size="14.00">translation_scope</text>
<polyline fill="none" stroke="black" points="38.2366,-530.161 326.237,-530.161 "/>
<text text-anchor="start" x="46.2366" y="-514.961" font-family="Times,serif" font-size="14.00">_layout</text>
</g>
<!-- DeviseController&#45;&gt;Devise::RegistrationsController -->
<g id="edge6" class="edge"><title>DeviseController&#45;&gt;Devise::RegistrationsController</title>
<path fill="none" stroke="black" d="M633.572,-394.914C626.247,-369.109 618.789,-342.833 611.636,-317.636"/>
</g>
<!-- DeviseController&#45;&gt;Devise::SessionsController -->
<g id="edge7" class="edge"><title>DeviseController&#45;&gt;Devise::SessionsController</title>
<path fill="none" stroke="black" d="M808.251,-578.024C903.771,-573.595 1035.62,-567.48 1126.61,-563.26"/>
</g>
<!-- DeviseController&#45;&gt;Devise::UnlocksController -->
<g id="edge8" class="edge"><title>DeviseController&#45;&gt;Devise::UnlocksController</title>
<path fill="none" stroke="black" d="M565.945,-482.584C471.667,-403.974 342.896,-296.605 257.22,-225.167"/>
</g>
<!-- DeviseController&#45;&gt;Devise::ConfirmationsController -->
<g id="edge9" class="edge"><title>DeviseController&#45;&gt;Devise::ConfirmationsController</title>
<path fill="none" stroke="black" d="M808.174,-506.636C928.968,-429.783 1113.45,-312.405 1233.74,-235.872"/>
</g>
<!-- DeviseController&#45;&gt;Devise::PasswordsController -->
<g id="edge10" class="edge"><title>DeviseController&#45;&gt;Devise::PasswordsController</title>
<path fill="none" stroke="black" d="M800.324,-394.884C826.911,-350.543 854.201,-305.03 877.302,-266.503"/>
</g>
<!-- DeviseController&#45;&gt;Devise::OmniauthCallbacksController -->
<g id="edge11" class="edge"><title>DeviseController&#45;&gt;Devise::OmniauthCallbacksController</title>
<path fill="none" stroke="black" d="M565.885,-583.526C493.817,-583.457 401.997,-583.37 326.254,-583.298"/>
</g>
</g>
</svg>
