<?xml version="1.0" encoding="UTF-8" standalone="no"?>
<!DOCTYPE svg PUBLIC "-//W3C//DTD SVG 1.1//EN"
 "http://www.w3.org/Graphics/SVG/1.1/DTD/svg11.dtd">
<!-- Generated by graphviz version 2.36.0 (20140111.2315)
 -->
<!-- Title: models_diagram Pages: 1 -->
<svg width="600pt" height="302pt"
 viewBox="0.00 0.00 600.00 302.00" xmlns="http://www.w3.org/2000/svg" xmlns:xlink="http://www.w3.org/1999/xlink">
<g id="graph0" class="graph" transform="scale(1 1) rotate(0) translate(4 298)">
<title>models_diagram</title>
<polygon fill="none" stroke="none" points="-4,4 -4,-298 596,-298 596,4 -4,4"/>
<!-- _diagram_info -->
<g id="node1" class="node"><title>_diagram_info</title>
<text text-anchor="start" x="7.5" y="-279.6" font-family="Times,serif" font-size="13.00">Models diagram</text>
<text text-anchor="start" x="7.5" y="-265.6" font-family="Times,serif" font-size="13.00">Date: Jan 24 2016 &#45; 20:08</text>
<text text-anchor="start" x="7.5" y="-251.6" font-family="Times,serif" font-size="13.00">Migration version: 20160124195322</text>
<text text-anchor="start" x="7.5" y="-237.6" font-family="Times,serif" font-size="13.00">Generated by RailRoady 1.4.2</text>
<text text-anchor="start" x="7.5" y="-223.6" font-family="Times,serif" font-size="13.00">http://railroady.prestonlee.com</text>
</g>
<!-- User -->
<g id="node2" class="node"><title>User</title>
<ellipse fill="none" stroke="black" cx="419" cy="-90" rx="32.2457" ry="18"/>
<text text-anchor="middle" x="419" y="-86.3" font-family="Times,serif" font-size="14.00">User</text>
</g>
<!-- Transaction -->
<g id="node3" class="node"><title>Transaction</title>
<ellipse fill="none" stroke="black" cx="419" cy="-18" rx="65.4659" ry="18"/>
<text text-anchor="middle" x="419" y="-14.3" font-family="Times,serif" font-size="14.00">Transaction</text>
</g>
<!-- User&#45;&gt;Transaction -->
<g id="edge1" class="edge"><title>User&#45;&gt;Transaction</title>
<path fill="none" stroke="#613453" d="M419,-63.6398C419,-58.0629 419,-52.1319 419,-46.4761"/>
<ellipse fill="none" stroke="#613453" cx="419" cy="-67.6966" rx="4" ry="4"/>
<polygon fill="#613453" stroke="#613453" points="419,-46.1043 423.5,-36.1043 419,-41.1043 419,-36.1043 419,-36.1043 419,-36.1043 419,-41.1043 414.5,-36.1044 419,-46.1043 419,-46.1043"/>
</g>
<!-- Employee -->
<g id="node4" class="node"><title>Employee</title>
<ellipse fill="none" stroke="black" cx="419" cy="-162" rx="56.3173" ry="18"/>
<text text-anchor="middle" x="419" y="-158.3" font-family="Times,serif" font-size="14.00">Employee</text>
</g>
<!-- Account -->
<g id="node5" class="node"><title>Account</title>
<ellipse fill="none" stroke="black" cx="543" cy="-162" rx="49.0941" ry="18"/>
<text text-anchor="middle" x="543" y="-158.3" font-family="Times,serif" font-size="14.00">Account</text>
</g>
<!-- Account&#45;&gt;User -->
<g id="edge6" class="edge"><title>Account&#45;&gt;User</title>
<path fill="none" stroke="#43af83" d="M510.149,-142.455C491.432,-131.889 468.126,-118.733 449.766,-108.368"/>
<ellipse fill="none" stroke="#43af83" cx="513.824" cy="-144.53" rx="4.00002" ry="4.00002"/>
<polygon fill="#43af83" stroke="#43af83" points="449.638,-108.296 443.142,-99.4611 445.284,-105.838 440.93,-103.38 440.93,-103.38 440.93,-103.38 445.284,-105.838 438.718,-107.299 449.638,-108.296 449.638,-108.296"/>
</g>
<!-- Account&#45;&gt;Transaction -->
<g id="edge5" class="edge"><title>Account&#45;&gt;Transaction</title>
<path fill="none" stroke="#2d6015" d="M523.451,-138.613C500.915,-112.806 463.987,-70.5174 440.614,-43.7515"/>
<ellipse fill="none" stroke="#2d6015" cx="526.145" cy="-141.698" rx="4.00002" ry="4.00002"/>
<polygon fill="#2d6015" stroke="#2d6015" points="440.404,-43.511 437.216,-33.0188 437.115,-39.7449 433.826,-35.9787 433.826,-35.9787 433.826,-35.9787 437.115,-39.7449 430.437,-38.9386 440.404,-43.511 440.404,-43.511"/>
</g>
<!-- ActiveRecord::Base -->
<g id="node6" class="node"><title>ActiveRecord::Base</title>
<ellipse fill="none" stroke="black" cx="377" cy="-255" rx="102.061" ry="18"/>
<text text-anchor="middle" x="377" y="-251.3" font-family="Times,serif" font-size="14.00">ActiveRecord::Base</text>
</g>
<!-- ActiveRecord::Base&#45;&gt;User -->
<g id="edge2" class="edge"><title>ActiveRecord::Base&#45;&gt;User</title>
<path fill="none" stroke="black" d="M366.664,-236.812C354.667,-214.464 338.295,-174.668 353,-144 361.832,-125.581 380.53,-111.539 395.778,-102.551"/>
</g>
<!-- ActiveRecord::Base&#45;&gt;Transaction -->
<g id="edge3" class="edge"><title>ActiveRecord::Base&#45;&gt;Transaction</title>
<path fill="none" stroke="black" d="M366.505,-236.809C358.281,-222.272 347.502,-200.58 343,-180 339.581,-164.37 339.411,-159.592 343,-144 352.97,-100.687 384.824,-58.1782 403.983,-35.6146"/>
</g>
<!-- ActiveRecord::Base&#45;&gt;Employee -->
<g id="edge4" class="edge"><title>ActiveRecord::Base&#45;&gt;Employee</title>
<path fill="none" stroke="black" d="M384.9,-236.884C392.409,-220.614 403.638,-196.284 411.136,-180.04"/>
</g>
<!-- ActiveRecord::Base&#45;&gt;Account -->
<g id="edge7" class="edge"><title>ActiveRecord::Base&#45;&gt;Account</title>
<path fill="none" stroke="black" d="M406.677,-237.731C438.012,-220.554 486.929,-193.738 516.857,-177.331"/>
</g>
</g>
</svg>
