<?xml version="1.0" encoding="UTF-8" standalone="no"?>
<!DOCTYPE svg PUBLIC "-//W3C//DTD SVG 1.1//EN"
 "http://www.w3.org/Graphics/SVG/1.1/DTD/svg11.dtd">
<!-- Generated by graphviz version 2.36.0 (20140111.2315)
 -->
<!-- Title: models_diagram Pages: 1 -->
<svg width="725pt" height="936pt"
 viewBox="0.00 0.00 725.00 936.00" xmlns="http://www.w3.org/2000/svg" xmlns:xlink="http://www.w3.org/1999/xlink">
<g id="graph0" class="graph" transform="scale(1 1) rotate(0) translate(4 932)">
<title>models_diagram</title>
<polygon fill="none" stroke="none" points="-4,4 -4,-932 721,-932 721,4 -4,4"/>
<!-- _diagram_info -->
<g id="node1" class="node"><title>_diagram_info</title>
<text text-anchor="start" x="7.5" y="-913.6" font-family="Times,serif" font-size="13.00">Models diagram</text>
<text text-anchor="start" x="7.5" y="-899.6" font-family="Times,serif" font-size="13.00">Date: Jan 24 2016 &#45; 20:08</text>
<text text-anchor="start" x="7.5" y="-885.6" font-family="Times,serif" font-size="13.00">Migration version: 20160124195322</text>
<text text-anchor="start" x="7.5" y="-871.6" font-family="Times,serif" font-size="13.00">Generated by RailRoady 1.4.2</text>
<text text-anchor="start" x="7.5" y="-857.6" font-family="Times,serif" font-size="13.00">http://railroady.prestonlee.com</text>
</g>
<!-- User -->
<g id="node2" class="node"><title>User</title>
<path fill="none" stroke="black" d="M336,-218.5C336,-218.5 574,-218.5 574,-218.5 580,-218.5 586,-224.5 586,-230.5 586,-230.5 586,-507.5 586,-507.5 586,-513.5 580,-519.5 574,-519.5 574,-519.5 336,-519.5 336,-519.5 330,-519.5 324,-513.5 324,-507.5 324,-507.5 324,-230.5 324,-230.5 324,-224.5 330,-218.5 336,-218.5"/>
<text text-anchor="middle" x="455" y="-504.3" font-family="Times,serif" font-size="14.00">User</text>
<polyline fill="none" stroke="black" points="324,-496.5 586,-496.5 "/>
<text text-anchor="start" x="332" y="-481.3" font-family="Times,serif" font-size="14.00">id :INTEGER</text>
<text text-anchor="start" x="332" y="-466.3" font-family="Times,serif" font-size="14.00">email :varchar</text>
<text text-anchor="start" x="332" y="-451.3" font-family="Times,serif" font-size="14.00">encrypted_password :varchar</text>
<text text-anchor="start" x="332" y="-436.3" font-family="Times,serif" font-size="14.00">reset_password_token :varchar</text>
<text text-anchor="start" x="332" y="-421.3" font-family="Times,serif" font-size="14.00">reset_password_sent_at :datetime</text>
<text text-anchor="start" x="332" y="-406.3" font-family="Times,serif" font-size="14.00">remember_created_at :datetime</text>
<text text-anchor="start" x="332" y="-391.3" font-family="Times,serif" font-size="14.00">sign_in_count :integer</text>
<text text-anchor="start" x="332" y="-376.3" font-family="Times,serif" font-size="14.00">current_sign_in_at :datetime</text>
<text text-anchor="start" x="332" y="-361.3" font-family="Times,serif" font-size="14.00">last_sign_in_at :datetime</text>
<text text-anchor="start" x="332" y="-346.3" font-family="Times,serif" font-size="14.00">current_sign_in_ip :varchar</text>
<text text-anchor="start" x="332" y="-331.3" font-family="Times,serif" font-size="14.00">last_sign_in_ip :varchar</text>
<text text-anchor="start" x="332" y="-316.3" font-family="Times,serif" font-size="14.00">confirmation_token :varchar</text>
<text text-anchor="start" x="332" y="-301.3" font-family="Times,serif" font-size="14.00">confirmed_at :datetime</text>
<text text-anchor="start" x="332" y="-286.3" font-family="Times,serif" font-size="14.00">confirmation_sent_at :datetime</text>
<text text-anchor="start" x="332" y="-271.3" font-family="Times,serif" font-size="14.00">unconfirmed_email :varchar</text>
<text text-anchor="start" x="332" y="-256.3" font-family="Times,serif" font-size="14.00">created_at :datetime</text>
<text text-anchor="start" x="332" y="-241.3" font-family="Times,serif" font-size="14.00">updated_at :datetime</text>
<text text-anchor="start" x="332" y="-226.3" font-family="Times,serif" font-size="14.00">admin :boolean</text>
</g>
<!-- Transaction -->
<g id="node3" class="node"><title>Transaction</title>
<path fill="none" stroke="black" d="M382,-0.5C382,-0.5 528,-0.5 528,-0.5 534,-0.5 540,-6.5 540,-12.5 540,-12.5 540,-169.5 540,-169.5 540,-175.5 534,-181.5 528,-181.5 528,-181.5 382,-181.5 382,-181.5 376,-181.5 370,-175.5 370,-169.5 370,-169.5 370,-12.5 370,-12.5 370,-6.5 376,-0.5 382,-0.5"/>
<text text-anchor="middle" x="455" y="-166.3" font-family="Times,serif" font-size="14.00">Transaction</text>
<polyline fill="none" stroke="black" points="370,-158.5 540,-158.5 "/>
<text text-anchor="start" x="378" y="-143.3" font-family="Times,serif" font-size="14.00">id :INTEGER</text>
<text text-anchor="start" x="378" y="-128.3" font-family="Times,serif" font-size="14.00">transType :varchar</text>
<text text-anchor="start" x="378" y="-113.3" font-family="Times,serif" font-size="14.00">method :varchar</text>
<text text-anchor="start" x="378" y="-98.3" font-family="Times,serif" font-size="14.00">description :varchar</text>
<text text-anchor="start" x="378" y="-83.3" font-family="Times,serif" font-size="14.00">amount :float</text>
<text text-anchor="start" x="378" y="-68.3" font-family="Times,serif" font-size="14.00">account_id :integer</text>
<text text-anchor="start" x="378" y="-53.3" font-family="Times,serif" font-size="14.00">employee_id :integer</text>
<text text-anchor="start" x="378" y="-38.3" font-family="Times,serif" font-size="14.00">created_at :datetime</text>
<text text-anchor="start" x="378" y="-23.3" font-family="Times,serif" font-size="14.00">updated_at :datetime</text>
<text text-anchor="start" x="378" y="-8.3" font-family="Times,serif" font-size="14.00">user_id :integer</text>
</g>
<!-- User&#45;&gt;Transaction -->
<g id="edge1" class="edge"><title>User&#45;&gt;Transaction</title>
<path fill="none" stroke="#fd7b4e" d="M455,-210.16C455,-203.983 455,-197.859 455,-191.84"/>
<ellipse fill="none" stroke="#fd7b4e" cx="455" cy="-214.288" rx="4" ry="4"/>
<polygon fill="#fd7b4e" stroke="#fd7b4e" points="455,-191.819 459.5,-181.819 455,-186.819 455,-181.819 455,-181.819 455,-181.819 455,-186.819 450.5,-181.819 455,-191.819 455,-191.819"/>
</g>
<!-- Employee -->
<g id="node4" class="node"><title>Employee</title>
<path fill="none" stroke="black" d="M357.5,-602C357.5,-602 514.5,-602 514.5,-602 520.5,-602 526.5,-608 526.5,-614 526.5,-614 526.5,-756 526.5,-756 526.5,-762 520.5,-768 514.5,-768 514.5,-768 357.5,-768 357.5,-768 351.5,-768 345.5,-762 345.5,-756 345.5,-756 345.5,-614 345.5,-614 345.5,-608 351.5,-602 357.5,-602"/>
<text text-anchor="middle" x="436" y="-752.8" font-family="Times,serif" font-size="14.00">Employee</text>
<polyline fill="none" stroke="black" points="345.5,-745 526.5,-745 "/>
<text text-anchor="start" x="353.5" y="-729.8" font-family="Times,serif" font-size="14.00">id :INTEGER</text>
<text text-anchor="start" x="353.5" y="-714.8" font-family="Times,serif" font-size="14.00">fullname :varchar</text>
<text text-anchor="start" x="353.5" y="-699.8" font-family="Times,serif" font-size="14.00">address :varchar</text>
<text text-anchor="start" x="353.5" y="-684.8" font-family="Times,serif" font-size="14.00">phone :varchar</text>
<text text-anchor="start" x="353.5" y="-669.8" font-family="Times,serif" font-size="14.00">employeeRole :varchar</text>
<text text-anchor="start" x="353.5" y="-654.8" font-family="Times,serif" font-size="14.00">email :varchar</text>
<text text-anchor="start" x="353.5" y="-639.8" font-family="Times,serif" font-size="14.00">branch :varchar</text>
<text text-anchor="start" x="353.5" y="-624.8" font-family="Times,serif" font-size="14.00">created_at :datetime</text>
<text text-anchor="start" x="353.5" y="-609.8" font-family="Times,serif" font-size="14.00">updated_at :datetime</text>
</g>
<!-- Account -->
<g id="node5" class="node"><title>Account</title>
<path fill="none" stroke="black" d="M556.5,-557C556.5,-557 705.5,-557 705.5,-557 711.5,-557 717.5,-563 717.5,-569 717.5,-569 717.5,-801 717.5,-801 717.5,-807 711.5,-813 705.5,-813 705.5,-813 556.5,-813 556.5,-813 550.5,-813 544.5,-807 544.5,-801 544.5,-801 544.5,-569 544.5,-569 544.5,-563 550.5,-557 556.5,-557"/>
<text text-anchor="middle" x="631" y="-797.8" font-family="Times,serif" font-size="14.00">Account</text>
<polyline fill="none" stroke="black" points="544.5,-790 717.5,-790 "/>
<text text-anchor="start" x="552.5" y="-774.8" font-family="Times,serif" font-size="14.00">id :INTEGER</text>
<text text-anchor="start" x="552.5" y="-759.8" font-family="Times,serif" font-size="14.00">customer_id :integer</text>
<text text-anchor="start" x="552.5" y="-744.8" font-family="Times,serif" font-size="14.00">accountType :varchar</text>
<text text-anchor="start" x="552.5" y="-729.8" font-family="Times,serif" font-size="14.00">balance :float</text>
<text text-anchor="start" x="552.5" y="-714.8" font-family="Times,serif" font-size="14.00">minBalance :float</text>
<text text-anchor="start" x="552.5" y="-699.8" font-family="Times,serif" font-size="14.00">branch :varchar</text>
<text text-anchor="start" x="552.5" y="-684.8" font-family="Times,serif" font-size="14.00">address :varchar</text>
<text text-anchor="start" x="552.5" y="-669.8" font-family="Times,serif" font-size="14.00">dob :date</text>
<text text-anchor="start" x="552.5" y="-654.8" font-family="Times,serif" font-size="14.00">email :varchar</text>
<text text-anchor="start" x="552.5" y="-639.8" font-family="Times,serif" font-size="14.00">postcode :varchar</text>
<text text-anchor="start" x="552.5" y="-624.8" font-family="Times,serif" font-size="14.00">gender :varchar</text>
<text text-anchor="start" x="552.5" y="-609.8" font-family="Times,serif" font-size="14.00">name :varchar</text>
<text text-anchor="start" x="552.5" y="-594.8" font-family="Times,serif" font-size="14.00">phone :varchar</text>
<text text-anchor="start" x="552.5" y="-579.8" font-family="Times,serif" font-size="14.00">created_at :datetime</text>
<text text-anchor="start" x="552.5" y="-564.8" font-family="Times,serif" font-size="14.00">updated_at :datetime</text>
</g>
<!-- Account&#45;&gt;User -->
<g id="edge6" class="edge"><title>Account&#45;&gt;User</title>
<path fill="none" stroke="#2f6ccd" d="M555.633,-549.539C551.724,-542.565 547.781,-535.53 543.836,-528.492"/>
<ellipse fill="none" stroke="#2f6ccd" cx="557.712" cy="-553.248" rx="4.00002" ry="4.00002"/>
<polygon fill="#2f6ccd" stroke="#2f6ccd" points="543.73,-528.302 542.766,-517.378 541.285,-523.94 538.84,-519.578 538.84,-519.578 538.84,-519.578 541.285,-523.94 534.915,-521.779 543.73,-528.302 543.73,-528.302"/>
</g>
<!-- Account&#45;&gt;Transaction -->
<g id="edge5" class="edge"><title>Account&#45;&gt;Transaction</title>
<path fill="none" stroke="#1dd5d3" d="M646.313,-548.837C651.342,-451.877 645.597,-320.759 595,-218 583.778,-195.209 566.474,-174.647 547.813,-157.061"/>
<ellipse fill="none" stroke="#1dd5d3" cx="646.086" cy="-552.939" rx="4" ry="4"/>
<polygon fill="#1dd5d3" stroke="#1dd5d3" points="547.704,-156.961 543.356,-146.894 544.013,-153.588 540.321,-150.216 540.321,-150.216 540.321,-150.216 544.013,-153.588 537.286,-153.538 547.704,-156.961 547.704,-156.961"/>
</g>
<!-- ActiveRecord::Base -->
<g id="node6" class="node"><title>ActiveRecord::Base</title>
<ellipse fill="none" stroke="black" cx="377" cy="-889" rx="102.061" ry="18"/>
<text text-anchor="middle" x="377" y="-885.3" font-family="Times,serif" font-size="14.00">ActiveRecord::Base</text>
</g>
<!-- ActiveRecord::Base&#45;&gt;User -->
<g id="edge2" class="edge"><title>ActiveRecord::Base&#45;&gt;User</title>
<path fill="none" stroke="black" d="M364.37,-871.128C354.468,-856.78 341.477,-835.188 336,-814 307.301,-702.983 303.807,-666.055 336,-556 339.579,-543.766 344.235,-531.573 349.629,-519.615"/>
</g>
<!-- ActiveRecord::Base&#45;&gt;Transaction -->
<g id="edge3" class="edge"><title>ActiveRecord::Base&#45;&gt;Transaction</title>
<path fill="none" stroke="black" d="M354.902,-871.273C339.053,-857.79 318.976,-837.286 310,-814 293.982,-772.443 302.375,-245.792 315,-218 327.104,-191.354 347.856,-167.939 369.731,-148.752"/>
</g>
<!-- ActiveRecord::Base&#45;&gt;Employee -->
<g id="edge4" class="edge"><title>ActiveRecord::Base&#45;&gt;Employee</title>
<path fill="none" stroke="black" d="M382.03,-870.778C388.69,-847.975 400.893,-806.198 412.012,-768.129"/>
</g>
<!-- ActiveRecord::Base&#45;&gt;Account -->
<g id="edge7" class="edge"><title>ActiveRecord::Base&#45;&gt;Account</title>
<path fill="none" stroke="black" d="M423.945,-872.929C457.297,-860.655 501.862,-840.943 535,-814 538.125,-811.459 541.204,-808.795 544.233,-806.031"/>
</g>
</g>
</svg>
