<?xml version="1.0" encoding="UTF-8" standalone="no"?>
<!DOCTYPE svg PUBLIC "-//W3C//DTD SVG 1.1//EN"
 "http://www.w3.org/Graphics/SVG/1.1/DTD/svg11.dtd">
<!-- Generated by graphviz version 2.36.0 (20140111.2315)
 -->
<!-- Title: models_diagram Pages: 1 -->
<svg width="522pt" height="994pt"
 viewBox="0.00 0.00 522.16 994.00" xmlns="http://www.w3.org/2000/svg" xmlns:xlink="http://www.w3.org/1999/xlink">
<g id="graph0" class="graph" transform="scale(1 1) rotate(0) translate(4 990)">
<title>models_diagram</title>
<polygon fill="none" stroke="none" points="-4,4 -4,-990 518.162,-990 518.162,4 -4,4"/>
<!-- _diagram_info -->
<g id="node1" class="node"><title>_diagram_info</title>
<text text-anchor="start" x="7.5" y="-949.6" font-family="Times,serif" font-size="13.00">Models diagram</text>
<text text-anchor="start" x="7.5" y="-935.6" font-family="Times,serif" font-size="13.00">Date: Jan 28 2016 &#45; 14:55</text>
<text text-anchor="start" x="7.5" y="-921.6" font-family="Times,serif" font-size="13.00">Migration version: 20160128054752</text>
<text text-anchor="start" x="7.5" y="-907.6" font-family="Times,serif" font-size="13.00">Generated by RailRoady 1.4.2</text>
<text text-anchor="start" x="7.5" y="-893.6" font-family="Times,serif" font-size="13.00">http://railroady.prestonlee.com</text>
</g>
<!-- User -->
<g id="node2" class="node"><title>User</title>
<path fill="none" stroke="black" d="M14,-526.5C14,-526.5 252,-526.5 252,-526.5 258,-526.5 264,-532.5 264,-538.5 264,-538.5 264,-815.5 264,-815.5 264,-821.5 258,-827.5 252,-827.5 252,-827.5 14,-827.5 14,-827.5 8,-827.5 2,-821.5 2,-815.5 2,-815.5 2,-538.5 2,-538.5 2,-532.5 8,-526.5 14,-526.5"/>
<text text-anchor="middle" x="133" y="-812.3" font-family="Times,serif" font-size="14.00">User</text>
<polyline fill="none" stroke="black" points="2,-804.5 264,-804.5 "/>
<text text-anchor="start" x="10" y="-789.3" font-family="Times,serif" font-size="14.00">id :INTEGER</text>
<text text-anchor="start" x="10" y="-774.3" font-family="Times,serif" font-size="14.00">email :varchar</text>
<text text-anchor="start" x="10" y="-759.3" font-family="Times,serif" font-size="14.00">encrypted_password :varchar</text>
<text text-anchor="start" x="10" y="-744.3" font-family="Times,serif" font-size="14.00">reset_password_token :varchar</text>
<text text-anchor="start" x="10" y="-729.3" font-family="Times,serif" font-size="14.00">reset_password_sent_at :datetime</text>
<text text-anchor="start" x="10" y="-714.3" font-family="Times,serif" font-size="14.00">remember_created_at :datetime</text>
<text text-anchor="start" x="10" y="-699.3" font-family="Times,serif" font-size="14.00">sign_in_count :integer</text>
<text text-anchor="start" x="10" y="-684.3" font-family="Times,serif" font-size="14.00">current_sign_in_at :datetime</text>
<text text-anchor="start" x="10" y="-669.3" font-family="Times,serif" font-size="14.00">last_sign_in_at :datetime</text>
<text text-anchor="start" x="10" y="-654.3" font-family="Times,serif" font-size="14.00">current_sign_in_ip :varchar</text>
<text text-anchor="start" x="10" y="-639.3" font-family="Times,serif" font-size="14.00">last_sign_in_ip :varchar</text>
<text text-anchor="start" x="10" y="-624.3" font-family="Times,serif" font-size="14.00">confirmation_token :varchar</text>
<text text-anchor="start" x="10" y="-609.3" font-family="Times,serif" font-size="14.00">confirmed_at :datetime</text>
<text text-anchor="start" x="10" y="-594.3" font-family="Times,serif" font-size="14.00">confirmation_sent_at :datetime</text>
<text text-anchor="start" x="10" y="-579.3" font-family="Times,serif" font-size="14.00">unconfirmed_email :varchar</text>
<text text-anchor="start" x="10" y="-564.3" font-family="Times,serif" font-size="14.00">created_at :datetime</text>
<text text-anchor="start" x="10" y="-549.3" font-family="Times,serif" font-size="14.00">updated_at :datetime</text>
<text text-anchor="start" x="10" y="-534.3" font-family="Times,serif" font-size="14.00">admin :boolean</text>
</g>
<!-- Transaction -->
<g id="node3" class="node"><title>Transaction</title>
<path fill="none" stroke="black" d="M117,-0.5C117,-0.5 263,-0.5 263,-0.5 269,-0.5 275,-6.5 275,-12.5 275,-12.5 275,-169.5 275,-169.5 275,-175.5 269,-181.5 263,-181.5 263,-181.5 117,-181.5 117,-181.5 111,-181.5 105,-175.5 105,-169.5 105,-169.5 105,-12.5 105,-12.5 105,-6.5 111,-0.5 117,-0.5"/>
<text text-anchor="middle" x="190" y="-166.3" font-family="Times,serif" font-size="14.00">Transaction</text>
<polyline fill="none" stroke="black" points="105,-158.5 275,-158.5 "/>
<text text-anchor="start" x="113" y="-143.3" font-family="Times,serif" font-size="14.00">id :INTEGER</text>
<text text-anchor="start" x="113" y="-128.3" font-family="Times,serif" font-size="14.00">transType :varchar</text>
<text text-anchor="start" x="113" y="-113.3" font-family="Times,serif" font-size="14.00">method :varchar</text>
<text text-anchor="start" x="113" y="-98.3" font-family="Times,serif" font-size="14.00">description :varchar</text>
<text text-anchor="start" x="113" y="-83.3" font-family="Times,serif" font-size="14.00">amount :float</text>
<text text-anchor="start" x="113" y="-68.3" font-family="Times,serif" font-size="14.00">account_id :integer</text>
<text text-anchor="start" x="113" y="-53.3" font-family="Times,serif" font-size="14.00">employee_id :integer</text>
<text text-anchor="start" x="113" y="-38.3" font-family="Times,serif" font-size="14.00">created_at :datetime</text>
<text text-anchor="start" x="113" y="-23.3" font-family="Times,serif" font-size="14.00">updated_at :datetime</text>
<text text-anchor="start" x="113" y="-8.3" font-family="Times,serif" font-size="14.00">user_id :integer</text>
</g>
<!-- User&#45;&gt;Transaction -->
<g id="edge1" class="edge"><title>User&#45;&gt;Transaction</title>
<path fill="none" stroke="#05ed0c" d="M129.815,-518.005C130.455,-429.269 135.321,-316.831 152,-218 153.48,-209.231 155.388,-200.216 157.56,-191.232"/>
<ellipse fill="none" stroke="#05ed0c" cx="129.79" cy="-522.246" rx="4" ry="4"/>
<polygon fill="#05ed0c" stroke="#05ed0c" points="157.567,-191.206 164.376,-182.61 158.79,-186.358 160.013,-181.509 160.013,-181.509 160.013,-181.509 158.79,-186.358 155.65,-180.409 157.567,-191.206 157.567,-191.206"/>
</g>
<!-- Account -->
<g id="node6" class="node"><title>Account</title>
<path fill="none" stroke="black" d="M173,-218.5C173,-218.5 323,-218.5 323,-218.5 329,-218.5 335,-224.5 335,-230.5 335,-230.5 335,-477.5 335,-477.5 335,-483.5 329,-489.5 323,-489.5 323,-489.5 173,-489.5 173,-489.5 167,-489.5 161,-483.5 161,-477.5 161,-477.5 161,-230.5 161,-230.5 161,-224.5 167,-218.5 173,-218.5"/>
<text text-anchor="middle" x="248" y="-474.3" font-family="Times,serif" font-size="14.00">Account</text>
<polyline fill="none" stroke="black" points="161,-466.5 335,-466.5 "/>
<text text-anchor="start" x="169" y="-451.3" font-family="Times,serif" font-size="14.00">id :INTEGER</text>
<text text-anchor="start" x="169" y="-436.3" font-family="Times,serif" font-size="14.00">customer_id :integer</text>
<text text-anchor="start" x="169" y="-421.3" font-family="Times,serif" font-size="14.00">accountType :varchar</text>
<text text-anchor="start" x="169" y="-406.3" font-family="Times,serif" font-size="14.00">balance :float</text>
<text text-anchor="start" x="169" y="-391.3" font-family="Times,serif" font-size="14.00">minBalance :float</text>
<text text-anchor="start" x="169" y="-376.3" font-family="Times,serif" font-size="14.00">branchName :varchar</text>
<text text-anchor="start" x="169" y="-361.3" font-family="Times,serif" font-size="14.00">address :varchar</text>
<text text-anchor="start" x="169" y="-346.3" font-family="Times,serif" font-size="14.00">dob :date</text>
<text text-anchor="start" x="169" y="-331.3" font-family="Times,serif" font-size="14.00">email :varchar</text>
<text text-anchor="start" x="169" y="-316.3" font-family="Times,serif" font-size="14.00">postcode :varchar</text>
<text text-anchor="start" x="169" y="-301.3" font-family="Times,serif" font-size="14.00">gender :varchar</text>
<text text-anchor="start" x="169" y="-286.3" font-family="Times,serif" font-size="14.00">name :varchar</text>
<text text-anchor="start" x="169" y="-271.3" font-family="Times,serif" font-size="14.00">phone :varchar</text>
<text text-anchor="start" x="169" y="-256.3" font-family="Times,serif" font-size="14.00">created_at :datetime</text>
<text text-anchor="start" x="169" y="-241.3" font-family="Times,serif" font-size="14.00">updated_at :datetime</text>
<text text-anchor="start" x="169" y="-226.3" font-family="Times,serif" font-size="14.00">user_id :integer</text>
</g>
<!-- User&#45;&gt;Account -->
<g id="edge2" class="edge"><title>User&#45;&gt;Account</title>
<path fill="none" stroke="#460085" d="M189.41,-518.542C191.743,-512.031 194.078,-505.513 196.4,-499.031"/>
<ellipse fill="none" stroke="#460085" cx="187.977" cy="-522.542" rx="4.00001" ry="4.00001"/>
<polygon fill="#460085" stroke="#460085" points="196.418,-498.98 204.027,-491.084 198.105,-494.273 199.791,-489.566 199.791,-489.566 199.791,-489.566 198.105,-494.273 195.555,-488.048 196.418,-498.98 196.418,-498.98"/>
</g>
<!-- Branch -->
<g id="node4" class="node"><title>Branch</title>
<path fill="none" stroke="black" d="M287,-864.5C287,-864.5 459,-864.5 459,-864.5 465,-864.5 471,-870.5 471,-876.5 471,-876.5 471,-973.5 471,-973.5 471,-979.5 465,-985.5 459,-985.5 459,-985.5 287,-985.5 287,-985.5 281,-985.5 275,-979.5 275,-973.5 275,-973.5 275,-876.5 275,-876.5 275,-870.5 281,-864.5 287,-864.5"/>
<text text-anchor="middle" x="373" y="-970.3" font-family="Times,serif" font-size="14.00">Branch</text>
<polyline fill="none" stroke="black" points="275,-962.5 471,-962.5 "/>
<text text-anchor="start" x="283" y="-947.3" font-family="Times,serif" font-size="14.00">id :INTEGER</text>
<text text-anchor="start" x="283" y="-932.3" font-family="Times,serif" font-size="14.00">branchName :varchar</text>
<text text-anchor="start" x="283" y="-917.3" font-family="Times,serif" font-size="14.00">branchLocation :varchar</text>
<text text-anchor="start" x="283" y="-902.3" font-family="Times,serif" font-size="14.00">branchPostcode :varchar</text>
<text text-anchor="start" x="283" y="-887.3" font-family="Times,serif" font-size="14.00">created_at :datetime</text>
<text text-anchor="start" x="283" y="-872.3" font-family="Times,serif" font-size="14.00">updated_at :datetime</text>
</g>
<!-- Branch&#45;&gt;User -->
<g id="edge4" class="edge"><title>Branch&#45;&gt;User</title>
<path fill="none" stroke="#1bb19c" d="M304.767,-858.641C294.382,-848.462 283.85,-838.004 274,-828 273.083,-827.069 272.164,-826.134 271.242,-825.195"/>
<ellipse fill="none" stroke="#1bb19c" cx="307.656" cy="-861.467" rx="4.00002" ry="4.00002"/>
<polygon fill="#1bb19c" stroke="#1bb19c" points="271.128,-825.078 267.351,-814.783 267.631,-821.504 264.135,-817.929 264.135,-817.929 264.135,-817.929 267.631,-821.504 260.918,-821.076 271.128,-825.078 271.128,-825.078"/>
</g>
<!-- Employee -->
<g id="node5" class="node"><title>Employee</title>
<path fill="none" stroke="black" d="M294.5,-594C294.5,-594 451.5,-594 451.5,-594 457.5,-594 463.5,-600 463.5,-606 463.5,-606 463.5,-748 463.5,-748 463.5,-754 457.5,-760 451.5,-760 451.5,-760 294.5,-760 294.5,-760 288.5,-760 282.5,-754 282.5,-748 282.5,-748 282.5,-606 282.5,-606 282.5,-600 288.5,-594 294.5,-594"/>
<text text-anchor="middle" x="373" y="-744.8" font-family="Times,serif" font-size="14.00">Employee</text>
<polyline fill="none" stroke="black" points="282.5,-737 463.5,-737 "/>
<text text-anchor="start" x="290.5" y="-721.8" font-family="Times,serif" font-size="14.00">id :INTEGER</text>
<text text-anchor="start" x="290.5" y="-706.8" font-family="Times,serif" font-size="14.00">fullname :varchar</text>
<text text-anchor="start" x="290.5" y="-691.8" font-family="Times,serif" font-size="14.00">address :varchar</text>
<text text-anchor="start" x="290.5" y="-676.8" font-family="Times,serif" font-size="14.00">phone :varchar</text>
<text text-anchor="start" x="290.5" y="-661.8" font-family="Times,serif" font-size="14.00">employeeRole :varchar</text>
<text text-anchor="start" x="290.5" y="-646.8" font-family="Times,serif" font-size="14.00">email :varchar</text>
<text text-anchor="start" x="290.5" y="-631.8" font-family="Times,serif" font-size="14.00">branch :varchar</text>
<text text-anchor="start" x="290.5" y="-616.8" font-family="Times,serif" font-size="14.00">created_at :datetime</text>
<text text-anchor="start" x="290.5" y="-601.8" font-family="Times,serif" font-size="14.00">updated_at :datetime</text>
</g>
<!-- Branch&#45;&gt;Employee -->
<g id="edge5" class="edge"><title>Branch&#45;&gt;Employee</title>
<path fill="none" stroke="#4f07dc" d="M373,-856.226C373,-829.777 373,-799.029 373,-770.594"/>
<ellipse fill="none" stroke="#4f07dc" cx="373" cy="-860.45" rx="4" ry="4"/>
<polygon fill="#4f07dc" stroke="#4f07dc" points="373,-770.235 377.5,-760.235 373,-765.235 373,-760.235 373,-760.235 373,-760.235 373,-765.235 368.5,-760.235 373,-770.235 373,-770.235"/>
</g>
<!-- Branch&#45;&gt;Account -->
<g id="edge3" class="edge"><title>Branch&#45;&gt;Account</title>
<path fill="none" stroke="#2e4c25" d="M453.837,-858.017C461.151,-848.715 467.489,-838.659 472,-828 524.317,-704.394 531.514,-646.307 472,-526 445.144,-471.712 391.881,-429.942 344.03,-401.277"/>
<ellipse fill="none" stroke="#2e4c25" cx="451.173" cy="-861.248" rx="4.00002" ry="4.00002"/>
<polygon fill="#2e4c25" stroke="#2e4c25" points="343.792,-401.137 337.443,-392.195 339.479,-398.607 335.166,-396.077 335.166,-396.077 335.166,-396.077 339.479,-398.607 332.889,-399.958 343.792,-401.137 343.792,-401.137"/>
</g>
<!-- Account&#45;&gt;Transaction -->
<g id="edge6" class="edge"><title>Account&#45;&gt;Transaction</title>
<path fill="none" stroke="#73977c" d="M216.315,-210.418C214.886,-203.986 213.465,-197.592 212.067,-191.302"/>
<ellipse fill="none" stroke="#73977c" cx="217.198" cy="-214.39" rx="4.00001" ry="4.00001"/>
<polygon fill="#73977c" stroke="#73977c" points="212.061,-191.272 214.284,-180.534 210.976,-186.391 209.891,-181.51 209.891,-181.51 209.891,-181.51 210.976,-186.391 205.498,-182.487 212.061,-191.272 212.061,-191.272"/>
</g>
</g>
</svg>
