<?xml version="1.0" encoding="UTF-8" standalone="no"?>
<!DOCTYPE svg PUBLIC "-//W3C//DTD SVG 1.1//EN"
 "http://www.w3.org/Graphics/SVG/1.1/DTD/svg11.dtd">
<!-- Generated by graphviz version 2.36.0 (20140111.2315)
 -->
<!-- Title: models_diagram Pages: 1 -->
<svg width="398pt" height="302pt"
 viewBox="0.00 0.00 397.67 302.00" xmlns="http://www.w3.org/2000/svg" xmlns:xlink="http://www.w3.org/1999/xlink">
<g id="graph0" class="graph" transform="scale(1 1) rotate(0) translate(4 298)">
<title>models_diagram</title>
<polygon fill="none" stroke="none" points="-4,4 -4,-298 393.671,-298 393.671,4 -4,4"/>
<!-- _diagram_info -->
<g id="node1" class="node"><title>_diagram_info</title>
<text text-anchor="start" x="7.5" y="-279.6" font-family="Times,serif" font-size="13.00">Models diagram</text>
<text text-anchor="start" x="7.5" y="-265.6" font-family="Times,serif" font-size="13.00">Date: Jan 28 2016 &#45; 14:55</text>
<text text-anchor="start" x="7.5" y="-251.6" font-family="Times,serif" font-size="13.00">Migration version: 20160128054752</text>
<text text-anchor="start" x="7.5" y="-237.6" font-family="Times,serif" font-size="13.00">Generated by RailRoady 1.4.2</text>
<text text-anchor="start" x="7.5" y="-223.6" font-family="Times,serif" font-size="13.00">http://railroady.prestonlee.com</text>
</g>
<!-- User -->
<g id="node2" class="node"><title>User</title>
<ellipse fill="none" stroke="black" cx="212" cy="-162" rx="32.2457" ry="18"/>
<text text-anchor="middle" x="212" y="-158.3" font-family="Times,serif" font-size="14.00">User</text>
</g>
<!-- Transaction -->
<g id="node3" class="node"><title>Transaction</title>
<ellipse fill="none" stroke="black" cx="250" cy="-18" rx="65.4659" ry="18"/>
<text text-anchor="middle" x="250" y="-14.3" font-family="Times,serif" font-size="14.00">Transaction</text>
</g>
<!-- User&#45;&gt;Transaction -->
<g id="edge1" class="edge"><title>User&#45;&gt;Transaction</title>
<path fill="none" stroke="#1c9dbf" d="M216.495,-135.543C219.888,-117.623 224.979,-93.1558 231,-72 233.473,-63.311 236.637,-53.988 239.67,-45.6212"/>
<ellipse fill="none" stroke="#1c9dbf" cx="215.699" cy="-139.838" rx="4.00001" ry="4.00001"/>
<polygon fill="#1c9dbf" stroke="#1c9dbf" points="239.764,-45.3692 247.468,-37.5658 241.507,-40.683 243.251,-35.9968 243.251,-35.9968 243.251,-35.9968 241.507,-40.683 239.033,-34.4277 239.764,-45.3692 239.764,-45.3692"/>
</g>
<!-- Account -->
<g id="node6" class="node"><title>Account</title>
<ellipse fill="none" stroke="black" cx="289" cy="-90" rx="49.0941" ry="18"/>
<text text-anchor="middle" x="289" y="-86.3" font-family="Times,serif" font-size="14.00">Account</text>
</g>
<!-- User&#45;&gt;Account -->
<g id="edge2" class="edge"><title>User&#45;&gt;Account</title>
<path fill="none" stroke="#48104d" d="M234.566,-140.486C243.732,-132.152 254.362,-122.489 263.783,-113.925"/>
<ellipse fill="none" stroke="#48104d" cx="231.289" cy="-143.464" rx="4.00002" ry="4.00002"/>
<polygon fill="#48104d" stroke="#48104d" points="263.953,-113.77 274.38,-110.373 267.653,-110.406 271.353,-107.043 271.353,-107.043 271.353,-107.043 267.653,-110.406 268.326,-103.713 263.953,-113.77 263.953,-113.77"/>
</g>
<!-- Branch -->
<g id="node4" class="node"><title>Branch</title>
<ellipse fill="none" stroke="black" cx="319" cy="-255" rx="44.2946" ry="18"/>
<text text-anchor="middle" x="319" y="-251.3" font-family="Times,serif" font-size="14.00">Branch</text>
</g>
<!-- Branch&#45;&gt;User -->
<g id="edge4" class="edge"><title>Branch&#45;&gt;User</title>
<path fill="none" stroke="#5b0c9e" d="M294.66,-233.3C277.492,-218.699 254.555,-199.192 237.199,-184.431"/>
<ellipse fill="none" stroke="#5b0c9e" cx="297.802" cy="-235.972" rx="4.00002" ry="4.00002"/>
<polygon fill="#5b0c9e" stroke="#5b0c9e" points="236.794,-184.087 232.092,-174.18 232.985,-180.847 229.177,-177.608 229.177,-177.608 229.177,-177.608 232.985,-180.847 226.261,-181.036 236.794,-184.087 236.794,-184.087"/>
</g>
<!-- Employee -->
<g id="node5" class="node"><title>Employee</title>
<ellipse fill="none" stroke="black" cx="319" cy="-162" rx="56.3173" ry="18"/>
<text text-anchor="middle" x="319" y="-158.3" font-family="Times,serif" font-size="14.00">Employee</text>
</g>
<!-- Branch&#45;&gt;Employee -->
<g id="edge5" class="edge"><title>Branch&#45;&gt;Employee</title>
<path fill="none" stroke="#610555" d="M319,-228.729C319,-216.725 319,-202.362 319,-190.129"/>
<ellipse fill="none" stroke="#610555" cx="319" cy="-232.884" rx="4" ry="4"/>
<polygon fill="#610555" stroke="#610555" points="319,-190.04 323.5,-180.04 319,-185.04 319,-180.04 319,-180.04 319,-180.04 319,-185.04 314.5,-180.04 319,-190.04 319,-190.04"/>
</g>
<!-- Branch&#45;&gt;Account -->
<g id="edge3" class="edge"><title>Branch&#45;&gt;Account</title>
<path fill="none" stroke="#b35967" d="M345.671,-233.411C370.884,-211.325 402.328,-175.212 384,-144 373.495,-126.11 354.513,-113.814 336.263,-105.606"/>
<ellipse fill="none" stroke="#b35967" cx="342.478" cy="-236.122" rx="4.00002" ry="4.00002"/>
<polygon fill="#b35967" stroke="#b35967" points="336.066,-105.524 328.566,-97.5241 331.451,-103.601 326.835,-101.678 326.835,-101.678 326.835,-101.678 331.451,-103.601 325.104,-105.832 336.066,-105.524 336.066,-105.524"/>
</g>
<!-- Account&#45;&gt;Transaction -->
<g id="edge6" class="edge"><title>Account&#45;&gt;Transaction</title>
<path fill="none" stroke="#158715" d="M275.532,-64.8269C272.015,-58.5146 268.208,-51.6811 264.634,-45.2658"/>
<ellipse fill="none" stroke="#158715" cx="277.612" cy="-68.5607" rx="4.00002" ry="4.00002"/>
<polygon fill="#158715" stroke="#158715" points="264.492,-45.011 263.556,-34.0851 262.058,-40.6431 259.625,-36.2753 259.625,-36.2753 259.625,-36.2753 262.058,-40.6431 255.694,-38.4655 264.492,-45.011 264.492,-45.011"/>
</g>
</g>
</svg>
